HIERARCHY
ROOT Hips
{
 OFFSET 0.000000 0.000000 0.000000
 CHANNELS 6 Xposition Yposition Zposition Yrotation Xrotation Zrotation
 JOINT Chest
 {
  OFFSET 0.000000 13.173100 -0.061900
  CHANNELS 3 Yrotation Xrotation Zrotation
  JOINT Chest2
  {
   OFFSET 0.000000 8.040800 0.126200
   CHANNELS 3 Yrotation Xrotation Zrotation
   JOINT Chest3
   {
    OFFSET 0.000000 7.994400 0.000000
    CHANNELS 3 Yrotation Xrotation Zrotation
    JOINT Chest4
    {
     OFFSET 0.000000 7.986200 0.000000
     CHANNELS 3 Yrotation Xrotation Zrotation
     JOINT Neck
     {
      OFFSET 0.000000 12.259400 0.000000
      CHANNELS 3 Yrotation Xrotation Zrotation
      JOINT Head
      {
       OFFSET 0.000000 7.518700 0.267100
       CHANNELS 3 Yrotation Xrotation Zrotation
       End Site
       {
        OFFSET 0.000000 13.617700 0.141000
       }
      }
     }
     JOINT RightCollar
     {
      OFFSET -2.983800 8.314300 0.000000
      CHANNELS 3 Yrotation Xrotation Zrotation
      JOINT RightShoulder
      {
       OFFSET -16.133400 0.000000 0.000000
       CHANNELS 3 Yrotation Xrotation Zrotation
       JOINT RightElbow
       {
        OFFSET 0.000000 -29.822100 0.000000
        CHANNELS 3 Yrotation Xrotation Zrotation
        JOINT RightWrist
        {
         OFFSET 0.000000 -24.437700 0.010900
         CHANNELS 3 Yrotation Xrotation Zrotation
         End Site
         {
          OFFSET 0.000000 -18.312300 0.000000
         }
        }
       }
      }
     }
     JOINT LeftCollar
     {
      OFFSET 2.983800 8.314300 0.000000
      CHANNELS 3 Yrotation Xrotation Zrotation
      JOINT LeftShoulder
      {
       OFFSET 16.133400 0.000000 0.000000
       CHANNELS 3 Yrotation Xrotation Zrotation
       JOINT LeftElbow
       {
        OFFSET 0.000000 -29.822100 0.000000
        CHANNELS 3 Yrotation Xrotation Zrotation
        JOINT LeftWrist
        {
         OFFSET 0.000000 -24.437700 0.010900
         CHANNELS 3 Yrotation Xrotation Zrotation
         End Site
         {
          OFFSET 0.000000 -18.312300 0.000000
         }
        }
       }
      }
     }
    }
   }
  }
 }
 JOINT RightHip
 {
  OFFSET -11.206700 0.306200 0.030900
  CHANNELS 3 Yrotation Xrotation Zrotation
  JOINT RightKnee
  {
   OFFSET 0.000000 -57.334900 0.009400
   CHANNELS 3 Yrotation Xrotation Zrotation
   JOINT RightAnkle
   {
    OFFSET 0.000000 -43.376200 0.036600
    CHANNELS 3 Yrotation Xrotation Zrotation
    JOINT RightToe
    {
     OFFSET 0.000000 -10.035500 18.363100
     CHANNELS 3 Yrotation Xrotation Zrotation
     End Site
     {
      OFFSET 0.000000 -1.618500 7.239000
     }
    }
   }
  }
 }
 JOINT LeftHip
 {
  OFFSET 11.206700 0.306200 0.030900
  CHANNELS 3 Yrotation Xrotation Zrotation
  JOINT LeftKnee
  {
   OFFSET 0.000000 -57.334900 0.009400
   CHANNELS 3 Yrotation Xrotation Zrotation
   JOINT LeftAnkle
   {
    OFFSET 0.000000 -43.376200 0.036600
    CHANNELS 3 Yrotation Xrotation Zrotation
    JOINT LeftToe
    {
     OFFSET 0.000000 -10.035500 18.363100
     CHANNELS 3 Yrotation Xrotation Zrotation
     End Site
     {
      OFFSET 0.000000 -1.618500 7.239000
     }
    }
   }
  }
 }
}
MOTION
Frames: 16
Frame Time: 0.008333
-93.392737 64.291500 92.043113 174.985594 -37.057129 -2.621309 2.250153 21.132525 1.518530 0.249346 2.824948 0.324223 0.415484 4.600209 0.519609 1.928864 18.022563 2.274428 0.785095 15.660235 -0.451420 1.621762 -6.682554 -1.112302 -2.664377 -1.916954 -3.466300 -3.682338 -0.418332 3.291206 -169.971861 -75.819327 -178.112983 -0.267001 -13.840240 -10.331173 -3.611301 -0.020672 0.307512 6.139003 -3.424366 1.495239 170.183896 -74.137114 177.392790 -5.860906 -18.567435 18.504149 -3.929203 -44.446869 1.155858 -126.554783 85.649897 -121.587004 0.861562 -9.305508 -2.919523 0.370816 -0.785676 0.170851 -2.301282 -40.682572 3.693939 70.941220 83.301018 60.222350 -6.164557 -12.869831 9.172996 0.450429 1.148031 0.234016
-93.393003 64.289290 92.043862 174.990018 -37.058826 -2.633969 2.248841 21.137572 1.538393 0.251504 2.822624 0.325328 0.414796 4.600966 0.521782 1.923107 18.030743 2.303036 0.771689 15.671164 -0.471965 1.621825 -6.681938 -1.123763 -2.671872 -1.821291 -3.450727 -3.702082 -0.480846 3.262330 -170.218879 -75.715096 -177.853939 -0.270102 -13.829230 -10.314037 -3.616608 -0.009762 0.283899 6.133591 -3.447815 1.522858 170.534468 -74.047999 177.050807 -5.873287 -18.698697 18.552363 -3.968918 -44.438763 1.152904 -126.704719 85.674431 -121.716733 0.874734 -9.312485 -2.944956 0.361853 -0.781566 0.173131 -2.292461 -40.682492 3.700142 70.974212 83.297638 60.263207 -6.178323 -12.860896 9.182746 0.454912 1.147018 0.234658
-93.395191 64.286157 92.046496 174.991630 -37.054531 -2.636329 2.249953 21.134574 1.550067 0.250752 2.820079 0.323756 0.417357 4.599351 0.527109 1.925610 18.030709 2.312405 0.761122 15.690761 -0.471708 1.608308 -6.609919 -1.113292 -2.683703 -1.803566 -3.461896 -3.713261 -0.443921 3.272806 -170.452968 -75.610585 -177.619662 -0.283602 -13.828319 -10.291559 -3.627642 0.020263 0.283905 6.099314 -3.482909 1.592436 170.815444 -73.954007 176.823256 -5.885301 -18.849004 18.605286 -4.000956 -44.438723 1.140844 -126.862221 85.701479 -121.856242 0.879402 -9.320234 -2.967162 0.367373 -0.771862 0.159110 -2.291450 -40.684785 3.704344 71.007272 83.282054 60.283123 -6.188275 -12.854781 9.203732 0.433395 1.150943 0.227751
-93.395848 64.283462 92.049789 174.986685 -37.053660 -2.640365 2.258106 21.129676 1.567240 0.249357 2.822826 0.317286 0.426165 4.592625 0.537097 1.919966 18.035617 2.311839 0.758784 15.707524 -0.463823 1.598869 -6.591679 -1.123861 -2.695710 -1.735664 -3.434136 -3.725468 -0.396650 3.279081 -170.725058 -75.476899 -177.329513 -0.278819 -13.860791 -10.273366 -3.628306 0.054978 0.296399 6.075488 -3.518343 1.603890 171.277534 -73.859551 176.400611 -5.897664 -19.009627 18.652166 -4.033872 -44.434851 1.136243 -127.009643 85.731769 -121.987743 0.882264 -9.325890 -2.966128 0.372100 -0.763472 0.132922 -2.276117 -40.687030 3.702650 71.032856 83.270631 60.315166 -6.187711 -12.845786 9.214732 0.425398 1.150711 0.222677
-93.395743 64.281355 92.053414 174.981652 -37.057398 -2.646418 2.284219 21.114525 1.601295 0.238550 2.832768 0.312161 0.423700 4.595753 0.530938 1.921976 18.036213 2.318069 0.784009 15.729608 -0.454630 1.563189 -6.598867 -1.131443 -2.707988 -1.660368 -3.401649 -3.728632 -0.442205 3.252030 -170.839592 -75.425181 -177.214224 -0.264238 -13.898164 -10.259350 -3.624558 0.093423 0.311755 6.048209 -3.557677 1.606528 171.726342 -73.766370 175.994351 -5.912688 -19.176458 18.688101 -4.068305 -44.426881 1.135613 -127.128575 85.760356 -122.089069 0.895590 -9.325422 -2.995030 0.362700 -0.762383 0.149857 -2.244973 -40.684885 3.702036 71.006690 83.269473 60.305973 -6.198006 -12.833719 9.213697 0.431000 1.149353 0.233943
-93.396375 64.280283 92.056528 174.980026 -37.069189 -2.649811 2.300929 21.114462 1.616852 0.238283 2.833687 0.314204 0.418176 4.600222 0.528413 1.940004 18.026737 2.331796 0.786525 15.760691 -0.460515 1.567989 -6.501398 -1.144370 -2.730617 -1.570248 -3.365664 -3.738182 -0.492559 3.220599 -171.170819 -75.338237 -176.913020 -0.296154 -13.901250 -10.223519 -3.632145 0.144257 0.324992 6.023253 -3.597721 1.599491 172.144883 -73.676903 175.614579 -5.927985 -19.349685 18.714404 -4.100160 -44.411602 1.134703 -127.225850 85.783512 -122.184628 0.915491 -9.325945 -3.004038 0.348245 -0.757881 0.139900 -2.229931 -40.672270 3.702882 70.963182 83.270756 60.270700 -6.204738 -12.826036 9.211959 0.438078 1.152644 0.240850
-93.398367 64.278647 92.061148 174.981108 -37.077444 -2.648423 2.314359 21.108111 1.624112 0.237715 2.836786 0.319023 0.420339 4.599190 0.531136 1.949932 18.023395 2.343660 0.803366 15.806708 -0.472889 1.601137 -6.378857 -1.159213 -2.745542 -1.413622 -3.303067 -3.764889 -0.546825 3.181206 -171.532706 -75.225247 -176.559328 -0.288301 -13.926008 -10.197730 -3.650016 0.177165 0.322946 6.011613 -3.617258 1.592905 172.532191 -73.591814 175.259649 -5.938470 -19.529652 18.736872 -4.129767 -44.399843 1.128012 -127.292742 85.804206 -122.252616 0.926965 -9.332080 -2.998417 0.343815 -0.748618 0.118751 -2.217222 -40.661917 3.699318 70.925441 83.263784 60.230539 -6.215082 -12.817385 9.220683 0.437058 1.157261 0.241600
-93.399830 64.277101 92.066643 174.986464 -37.086389 -2.651674 2.327177 21.098904 1.633760 0.238134 2.837832 0.319192 0.446360 4.569465 0.537981 1.939388 18.041898 2.351655 0.840413 15.882269 -0.477984 1.658481 -6.227277 -1.172187 -2.768006 -1.278845 -3.247239 -3.783419 -0.610078 3.145863 -171.683434 -75.174216 -176.408825 -0.214748 -13.945200 -10.180044 -3.670086 0.222902 0.329648 6.009240 -3.644101 1.599547 172.774928 -73.522861 175.037024 -5.941464 -19.723037 18.766039 -4.157602 -44.388271 1.119480 -127.350190 85.823187 -122.294712 0.929045 -9.332075 -3.025809 0.349478 -0.746681 0.127346 -2.217470 -40.651836 3.700297 70.897398 83.253794 60.197986 -6.220302 -12.807861 9.226038 0.433796 1.161676 0.240348
-93.399101 64.274209 92.075187 174.979898 -37.085350 -2.658632 2.355540 21.076383 1.656414 0.236735 2.837543 0.319613 0.441332 4.576337 0.536709 1.965590 18.021696 2.362947 0.887263 15.973172 -0.483379 1.728124 -6.050021 -1.186517 -2.801416 -1.155063 -3.192442 -3.793569 -0.692992 3.099806 -172.022624 -75.151932 -176.086839 -0.184045 -13.934298 -10.156849 -3.674243 0.287691 0.343165 6.006085 -3.709417 1.611391 172.850285 -73.495221 174.961625 -5.936307 -19.943066 18.811077 -4.171473 -44.387970 1.117806 -127.305546 85.840160 -122.207878 0.911220 -9.321001 -3.080294 0.375404 -0.751075 0.161228 -2.211002 -40.652930 3.718292 70.884532 83.242124 60.181885 -6.238554 -12.796017 9.232882 0.431153 1.165295 0.241487
-93.399750 64.273046 92.081964 174.979480 -37.096905 -2.664099 2.377329 21.068812 1.674864 0.263309 2.810883 0.325584 0.410099 4.606265 0.530122 2.002582 17.996430 2.371832 0.919777 16.064585 -0.484655 1.783338 -5.895387 -1.208617 -2.851371 -1.019811 -3.124236 -3.794865 -0.745811 3.060289 -172.463799 -75.111335 -175.672939 -0.141654 -13.910864 -10.124168 -3.621583 0.350875 0.380872 5.919515 -3.755831 1.583240 172.947092 -73.480957 174.876778 -5.925715 -20.194681 18.882635 -4.210049 -44.372885 1.125321 -127.316560 85.862856 -122.219260 0.927592 -9.317324 -3.099750 0.367088 -0.747280 0.163411 -2.198626 -40.641336 3.730231 70.820878 83.245239 60.116518 -6.257886 -12.780674 9.240133 0.444317 1.165358 0.247961
-93.401303 64.274613 92.085604 174.960350 -37.128682 -2.655840 2.412274 21.088311 1.691415 0.257459 2.813480 0.323335 0.428647 4.585687 0.534966 2.027244 17.985501 2.382634 0.903161 16.126026 -0.487815 1.831646 -5.797972 -1.268155 -2.905586 -0.880087 -3.054662 -3.781189 -0.770827 3.030066 -173.402129 -75.104843 -174.809848 -0.184138 -13.929065 -10.064064 -3.605545 0.380482 0.385269 5.856945 -3.782905 1.576962 173.035097 -73.497509 174.807615 -5.909157 -20.484373 18.994245 -4.230994 -44.338203 1.132228 -127.329279 85.883697 -122.245300 0.950996 -9.315736 -3.106720 0.349544 -0.741678 0.161361 -2.177097 -40.609701 3.735155 70.788012 83.247955 60.082669 -6.261084 -12.759786 9.241064 0.451615 1.154146 0.251650
-93.401106 64.274565 92.092107 174.938104 -37.147674 -2.658343 2.455901 21.103338 1.721213 0.248712 2.810675 0.321409 0.476269 4.594840 0.551202 2.086481 17.994952 2.413346 0.817536 16.128448 -0.505033 1.825445 -5.812526 -1.359557 -3.019087 -0.846939 -3.026209 -3.762792 -0.762965 3.026701 -174.167240 -75.139340 -174.120843 -0.160154 -13.928996 -9.995700 -3.639946 0.344999 0.370352 5.777780 -3.788907 1.582466 173.126454 -73.519524 174.746849 -5.886447 -20.827159 19.155091 -4.267067 -44.317243 1.158920 -127.315003 85.910775 -122.233321 0.955515 -9.300878 -3.130860 0.347764 -0.742434 0.164322 -2.164703 -40.593488 3.755127 70.778712 83.250221 60.073201 -6.254194 -12.741493 9.242527 0.451362 1.144134 0.252627
-93.400645 64.273201 92.100634 174.906094 -37.155939 -2.661664 2.515077 21.112749 1.758127 0.278039 2.821252 0.331682 0.440507 4.587371 0.544352 2.147453 18.017301 2.433630 0.806340 16.091571 -0.579007 1.731630 -5.909813 -1.405772 -3.088866 -0.737799 -2.932923 -3.756533 -0.849372 2.978069 -174.884389 -75.202176 -173.468502 -0.091370 -13.910712 -9.924267 -3.626607 0.301247 0.358708 5.680743 -3.855205 1.580764 173.264984 -73.610822 174.656833 -5.872897 -21.226137 19.375231 -4.306918 -44.308227 1.193010 -127.159584 85.930622 -122.072063 0.972137 -9.276949 -3.167088 0.350969 -0.745707 0.168734 -2.150370 -40.587182 3.782687 70.784682 83.246898 60.077948 -6.249694 -12.728722 9.252328 0.440521 1.138960 0.245919
-93.404376 64.274786 92.104619 174.885637 -37.183528 -2.657104 2.549945 21.141641 1.774021 0.299654 2.831421 0.335334 0.425390 4.584310 0.544327 2.220472 18.045915 2.455735 0.748278 16.022799 -0.633033 1.639776 -6.055596 -1.498073 -3.165562 -0.630866 -2.842221 -3.761628 -0.928367 2.944474 -175.673114 -75.297763 -172.741991 -0.010225 -13.889134 -9.848024 -3.619233 0.263841 0.350527 5.566942 -3.948864 1.575222 173.494405 -73.716307 174.499744 -5.888483 -21.660602 19.663706 -4.326835 -44.278375 1.203181 -127.120672 85.948950 -122.043923 0.992906 -9.268423 -3.173629 0.335082 -0.743187 0.166845 -2.132452 -40.560375 3.786495 70.774907 83.242902 60.074861 -6.256138 -12.708772 9.249790 0.437829 1.134788 0.244353
-93.408380 64.277200 92.107352 174.861939 -37.213396 -2.653446 2.589978 21.172370 1.794011 0.324211 2.842843 0.337386 0.487004 4.621169 0.556930 2.222490 18.035698 2.470173 0.659944 15.967853 -0.640266 1.548341 -6.251049 -1.645601 -3.241434 -0.553603 -2.777273 -3.776843 -0.962898 2.945028 -176.497403 -75.429110 -171.980585 0.080459 -13.859204 -9.774867 -3.615937 0.244271 0.346829 5.443345 -4.048148 1.569872 173.877573 -73.801737 174.213890 -5.942604 -22.094940 20.016190 -4.341513 -44.244093 1.212795 -127.066907 85.968293 -121.997366 1.011311 -9.263987 -3.172613 0.324037 -0.737439 0.154880 -2.118195 -40.529967 3.796651 70.766172 83.240395 60.069705 -6.262038 -12.688930 9.247410 0.440083 1.123771 0.244562
-93.410936 64.278458 92.111619 174.829621 -37.229650 -2.654827 2.657093 21.192154 1.829654 0.314622 2.843376 0.337900 0.493998 4.626874 0.559076 2.308542 18.063185 2.489334 0.593337 15.847288 -0.750669 1.399337 -6.387139 -1.667975 -3.312709 -0.476390 -2.718488 -3.797421 -0.978632 2.964125 -177.346999 -75.597733 -171.196207 0.180554 -13.818306 -9.717244 -3.618503 0.247582 0.348737 5.321318 -4.158987 1.560566 174.465147 -73.875885 173.747062 -6.037950 -22.504977 20.420262 -4.382370 -44.219236 1.243340 -126.998973 85.998986 -121.943208 1.038994 -9.262377 -3.172461 0.305299 -0.724121 0.133171 -2.104354 -40.514495 3.822431 70.755237 83.243176 60.062069 -6.265181 -12.667570 9.246224 0.444117 1.111795 0.245895
